<?xml version="1.0" encoding="UTF-8"?>
<svg width="1000px" height="1000px" viewBox="0 0 1000 1000" version="1.1" xmlns="http://www.w3.org/2000/svg" xmlns:xlink="http://www.w3.org/1999/xlink">
    <title>BG</title>
    <g id="AltStore" stroke="none" stroke-width="1" fill="none" fill-rule="evenodd">
        <path d="M952.811152,380.484196 C935.97065,363.073528 914.670595,350.966994 894.783402,337.4759 C872.257975,322.198925 849.899948,306.627648 828.311964,290.039689 C786.950619,258.234954 750.638077,222.617663 718.115485,181.809947 C701.536128,161.008112 686.041527,139.323369 671.022343,117.377767 C656.746418,96.5157334 643.454809,74.6236411 627.049549,55.3200731 C598.323603,21.5154185 554.009311,2.72687977 510.177133,0.272129427 C464.436588,-2.28964 415.555607,13.26826 382.416981,45.5612699 C365.074277,62.4635972 352.057205,83.4928481 338.457579,103.358266 C323.746412,124.849037 308.974982,146.292987 293.259412,167.068068 C264.533466,205.033089 232.265322,239.807604 195.738507,270.408375 C155.435134,304.179586 110.745865,331.482831 68.4269891,362.464857 C48.6938042,376.905745 32.8911858,393.540525 21.2735829,414.844012 C11.0956253,433.498777 4.53352103,454.120018 1.66092642,475.149268 C-3.96373436,516.318174 4.72770575,559.373291 27.273221,594.428731 C53.4479817,635.142806 98.6528447,657.509795 137.201859,684.699332 C180.029633,714.925536 220.574063,747.546292 255.453656,786.815609 C290.60109,826.379228 319.922982,870.002884 349.807341,913.519521 C363.13243,932.916731 376.872673,951.952751 395.835815,966.246488 C413.506624,979.563676 434.009852,988.974667 455.417043,994.466084 C499.858559,1005.86362 548.244034,999.542802 588.018421,976.547075 C630.745754,951.859109 654.489858,906.322487 681.963648,867.113369 C710.555673,826.312341 741.973421,787.798847 778.105171,753.385521 C815.636389,717.654523 857.935178,688.0905 900.662512,658.987996 C921.011731,645.122336 942.967996,631.972365 959.406737,613.344355 C974.84777,595.8668 985.809162,574.389407 992.471707,552.116059 C1004.29019,512.579195 1002.20773,469.096001 986.123875,431.037338 C978.21587,412.342441 966.933068,395.085613 952.811152,380.484196" id="BG" fill="color(display-p3 1.000 1.000 1.000)"></path>
    </g>
</svg>