<?xml version="1.0" encoding="UTF-8"?>
<svg width="550px" height="550px" viewBox="0 0 550 550" version="1.1" xmlns="http://www.w3.org/2000/svg" xmlns:xlink="http://www.w3.org/1999/xlink">
    <title>Top</title>
    <g id="AltStore" stroke="none" stroke-width="1" fill="none" fill-rule="evenodd">
        <path d="M524.046134,209.266308 C514.783857,199.69044 503.068827,193.031847 492.130871,185.611745 C479.741886,177.209409 467.444971,168.645206 455.57158,159.521829 C432.822841,142.029224 412.850943,122.439715 394.963517,99.9954708 C385.84487,88.5544614 377.32284,76.6278529 369.062289,64.5577718 C361.21053,53.0836534 353.900145,41.0430026 344.877252,30.4260402 C329.077981,11.8334802 304.705121,1.49978387 280.597423,0.149671185 C255.440123,-1.259302 228.555584,7.29754299 210.32934,25.0586985 C200.790852,34.3549785 193.631463,45.9210665 186.151668,56.8470465 C178.060527,68.6669704 169.93624,80.4611428 161.292676,91.8874371 C145.493406,112.768199 127.745927,131.894182 107.656179,148.724606 C85.489324,167.298772 60.910226,182.315557 37.634844,199.355671 C26.7815923,207.29816 18.0901522,216.447289 11.7004706,228.164207 C6.1025939,238.424327 2.49343657,249.76601 0.913509532,261.332098 C-2.1800539,283.974996 2.60023816,307.65531 15.0002716,326.935802 C29.39639,349.328543 54.2590646,361.630387 75.4610225,376.584633 C99.0162983,393.209045 121.315735,411.150461 140.499511,432.748585 C159.830599,454.508576 175.95764,478.501586 192.394037,502.435737 C199.722836,513.104202 207.27997,523.574013 217.709698,531.435568 C227.428643,538.760022 238.705418,543.936067 250.479373,546.956346 C274.922207,553.224989 301.534218,549.748541 323.410131,537.100891 C346.910165,523.52251 359.969422,498.477368 375.080006,476.912353 C390.80562,454.471788 408.085382,433.289366 427.957844,414.362037 C448.600014,394.709988 471.864348,378.449775 495.364381,362.443398 C506.556452,354.817285 518.632398,347.584801 527.673705,337.339395 C536.166273,327.72674 542.195039,315.914174 545.859439,303.663833 C552.359605,281.918557 551.21425,258.002801 542.368131,237.070536 C538.018729,226.788343 531.813188,217.297087 524.046134,209.266308" id="Top" fill="color(display-p3 1.000 1.000 1.000)"></path>
    </g>
</svg>